<mxfile host="app.diagrams.net" agent="Mozilla/5.0 (Windows NT 10.0; Win64; x64) AppleWebKit/537.36 (KHTML, like Gecko) Chrome/135.0.0.0 Safari/537.36" version="26.1.3">
  <diagram name="第 1 页" id="I0B056mDG_vpDSJs-hjq">
    <mxGraphModel dx="1434" dy="772" grid="1" gridSize="10" guides="1" tooltips="1" connect="1" arrows="1" fold="1" page="1" pageScale="1" pageWidth="827" pageHeight="1169" math="0" shadow="0">
      <root>
        <mxCell id="0" />
        <mxCell id="1" parent="0" />
        <mxCell id="7q9iWNbSioXYZYg2fKxY-2" style="edgeStyle=orthogonalEdgeStyle;rounded=0;orthogonalLoop=1;jettySize=auto;html=1;exitX=0.5;exitY=1;exitDx=0;exitDy=0;entryX=0.5;entryY=0;entryDx=0;entryDy=0;" parent="1" source="7q9iWNbSioXYZYg2fKxY-3" target="7q9iWNbSioXYZYg2fKxY-10" edge="1">
          <mxGeometry relative="1" as="geometry" />
        </mxCell>
        <mxCell id="7q9iWNbSioXYZYg2fKxY-3" value="&lt;p class=&quot;MsoNormal&quot;&gt;&lt;span style=&quot;font-family: 宋体; color: rgb(51, 51, 51);&quot;&gt;&lt;font&gt;&lt;font style=&quot;&quot; face=&quot;宋体&quot;&gt;视网灵眸&lt;/font&gt;&lt;font style=&quot;&quot; face=&quot;宋体&quot;&gt;——智能化视网膜筛查与影像分析系统&lt;/font&gt;&lt;/font&gt;&lt;/span&gt;&lt;/p&gt;" style="rounded=0;whiteSpace=wrap;html=1;labelBackgroundColor=none;" parent="1" vertex="1">
          <mxGeometry x="267" y="50" width="306" height="40" as="geometry" />
        </mxCell>
        <mxCell id="7q9iWNbSioXYZYg2fKxY-7" style="edgeStyle=orthogonalEdgeStyle;rounded=0;orthogonalLoop=1;jettySize=auto;html=1;exitX=0.5;exitY=1;exitDx=0;exitDy=0;" parent="1" source="7q9iWNbSioXYZYg2fKxY-10" target="7q9iWNbSioXYZYg2fKxY-11" edge="1">
          <mxGeometry relative="1" as="geometry" />
        </mxCell>
        <mxCell id="7q9iWNbSioXYZYg2fKxY-8" style="edgeStyle=orthogonalEdgeStyle;rounded=0;orthogonalLoop=1;jettySize=auto;html=1;exitX=0.5;exitY=1;exitDx=0;exitDy=0;entryX=0.5;entryY=0;entryDx=0;entryDy=0;" parent="1" source="7q9iWNbSioXYZYg2fKxY-10" target="7q9iWNbSioXYZYg2fKxY-12" edge="1">
          <mxGeometry relative="1" as="geometry" />
        </mxCell>
        <mxCell id="7q9iWNbSioXYZYg2fKxY-9" style="edgeStyle=orthogonalEdgeStyle;rounded=0;orthogonalLoop=1;jettySize=auto;html=1;exitX=0.5;exitY=1;exitDx=0;exitDy=0;" parent="1" source="7q9iWNbSioXYZYg2fKxY-10" target="7q9iWNbSioXYZYg2fKxY-13" edge="1">
          <mxGeometry relative="1" as="geometry" />
        </mxCell>
        <mxCell id="7q9iWNbSioXYZYg2fKxY-10" value="神经网络模型" style="rounded=0;whiteSpace=wrap;html=1;labelBackgroundColor=none;" parent="1" vertex="1">
          <mxGeometry x="360" y="160" width="120" height="40" as="geometry" />
        </mxCell>
        <mxCell id="7q9iWNbSioXYZYg2fKxY-11" value="U-Net" style="rounded=0;whiteSpace=wrap;html=1;fontFamily=Times New Roman;labelBackgroundColor=none;" parent="1" vertex="1">
          <mxGeometry x="140" y="240" width="120" height="40" as="geometry" />
        </mxCell>
        <mxCell id="7q9iWNbSioXYZYg2fKxY-60" style="edgeStyle=orthogonalEdgeStyle;rounded=0;orthogonalLoop=1;jettySize=auto;html=1;exitX=0.5;exitY=1;exitDx=0;exitDy=0;entryX=0.5;entryY=0;entryDx=0;entryDy=0;" parent="1" source="7q9iWNbSioXYZYg2fKxY-12" target="7q9iWNbSioXYZYg2fKxY-50" edge="1">
          <mxGeometry relative="1" as="geometry" />
        </mxCell>
        <mxCell id="7q9iWNbSioXYZYg2fKxY-62" style="edgeStyle=orthogonalEdgeStyle;rounded=0;orthogonalLoop=1;jettySize=auto;html=1;exitX=0.5;exitY=1;exitDx=0;exitDy=0;entryX=0.5;entryY=0;entryDx=0;entryDy=0;" parent="1" source="7q9iWNbSioXYZYg2fKxY-12" target="7q9iWNbSioXYZYg2fKxY-51" edge="1">
          <mxGeometry relative="1" as="geometry" />
        </mxCell>
        <mxCell id="7q9iWNbSioXYZYg2fKxY-64" style="edgeStyle=orthogonalEdgeStyle;rounded=0;orthogonalLoop=1;jettySize=auto;html=1;exitX=0.5;exitY=1;exitDx=0;exitDy=0;" parent="1" source="7q9iWNbSioXYZYg2fKxY-12" target="7q9iWNbSioXYZYg2fKxY-52" edge="1">
          <mxGeometry relative="1" as="geometry" />
        </mxCell>
        <mxCell id="7q9iWNbSioXYZYg2fKxY-12" value="&lt;p class=&quot;MsoNormal&quot;&gt;&lt;span style=&quot;mso-spacerun:&#39;yes&#39;;font-family:宋体;mso-ascii-font-family:&#39;Times New Roman&#39;;&lt;br/&gt;mso-hansi-font-family:&#39;Times New Roman&#39;;mso-bidi-font-family:&#39;Times New Roman&#39;;&quot; class=&quot;10&quot;&gt;&lt;font face=&quot;Times New Roman&quot;&gt;SAM2-UNet-Attention&lt;/font&gt;&lt;/span&gt;&lt;/p&gt;" style="rounded=0;whiteSpace=wrap;html=1;fontFamily=Times New Roman;labelBackgroundColor=none;" parent="1" vertex="1">
          <mxGeometry x="360" y="240" width="120" height="40" as="geometry" />
        </mxCell>
        <mxCell id="7q9iWNbSioXYZYg2fKxY-66" style="edgeStyle=orthogonalEdgeStyle;rounded=0;orthogonalLoop=1;jettySize=auto;html=1;exitX=0.5;exitY=1;exitDx=0;exitDy=0;entryX=0.5;entryY=0;entryDx=0;entryDy=0;" parent="1" source="7q9iWNbSioXYZYg2fKxY-13" target="7q9iWNbSioXYZYg2fKxY-55" edge="1">
          <mxGeometry relative="1" as="geometry" />
        </mxCell>
        <mxCell id="7q9iWNbSioXYZYg2fKxY-68" style="edgeStyle=orthogonalEdgeStyle;rounded=0;orthogonalLoop=1;jettySize=auto;html=1;exitX=0.5;exitY=1;exitDx=0;exitDy=0;" parent="1" source="7q9iWNbSioXYZYg2fKxY-13" target="7q9iWNbSioXYZYg2fKxY-56" edge="1">
          <mxGeometry relative="1" as="geometry" />
        </mxCell>
        <mxCell id="7q9iWNbSioXYZYg2fKxY-70" style="edgeStyle=orthogonalEdgeStyle;rounded=0;orthogonalLoop=1;jettySize=auto;html=1;exitX=0.5;exitY=1;exitDx=0;exitDy=0;entryX=0.5;entryY=0;entryDx=0;entryDy=0;" parent="1" source="7q9iWNbSioXYZYg2fKxY-13" target="7q9iWNbSioXYZYg2fKxY-53" edge="1">
          <mxGeometry relative="1" as="geometry" />
        </mxCell>
        <mxCell id="7q9iWNbSioXYZYg2fKxY-72" style="edgeStyle=orthogonalEdgeStyle;rounded=0;orthogonalLoop=1;jettySize=auto;html=1;exitX=0.5;exitY=1;exitDx=0;exitDy=0;entryX=0.5;entryY=0;entryDx=0;entryDy=0;" parent="1" source="7q9iWNbSioXYZYg2fKxY-13" target="7q9iWNbSioXYZYg2fKxY-54" edge="1">
          <mxGeometry relative="1" as="geometry" />
        </mxCell>
        <mxCell id="7q9iWNbSioXYZYg2fKxY-13" value="&lt;p class=&quot;MsoNormal&quot;&gt;&lt;font&gt;LM&lt;font style=&quot;&quot;&gt;S&lt;/font&gt;FR-Net&lt;/font&gt;&lt;/p&gt;" style="rounded=0;whiteSpace=wrap;html=1;fontFamily=Times New Roman;labelBackgroundColor=none;" parent="1" vertex="1">
          <mxGeometry x="610" y="240" width="120" height="40" as="geometry" />
        </mxCell>
        <mxCell id="7q9iWNbSioXYZYg2fKxY-50" value="&lt;span style=&quot;color: rgb(51, 51, 51); font-family: 宋体; font-size: 14px; text-align: start; white-space-collapse: preserve; background-color: rgb(255, 255, 255);&quot;&gt;残差连接&lt;/span&gt;" style="rounded=0;whiteSpace=wrap;html=1;" parent="1" vertex="1">
          <mxGeometry x="300" y="320" width="60" height="130" as="geometry" />
        </mxCell>
        <mxCell id="7q9iWNbSioXYZYg2fKxY-51" value="&lt;span style=&quot;color: rgb(51, 51, 51); font-family: 宋体; font-size: 14px; text-align: start; white-space-collapse: preserve; background-color: rgb(255, 255, 255);&quot;&gt;轻量级Prompt适应层（Adapter）&lt;/span&gt;" style="rounded=0;whiteSpace=wrap;html=1;" parent="1" vertex="1">
          <mxGeometry x="380.75" y="320" width="78.5" height="130" as="geometry" />
        </mxCell>
        <mxCell id="7q9iWNbSioXYZYg2fKxY-52" value="&lt;span style=&quot;color: rgb(51, 51, 51); font-family: 宋体; font-size: 14px; text-align: start; white-space-collapse: preserve; background-color: rgb(255, 255, 255);&quot;&gt;MAB多尺度注意力模块&lt;/span&gt;" style="rounded=0;whiteSpace=wrap;html=1;" parent="1" vertex="1">
          <mxGeometry x="480" y="320" width="60" height="130" as="geometry" />
        </mxCell>
        <mxCell id="7q9iWNbSioXYZYg2fKxY-53" value="&lt;span style=&quot;color: rgb(51, 51, 51); font-family: 宋体; font-size: 14px; text-align: start; white-space-collapse: preserve; background-color: rgb(255, 255, 255);&quot;&gt;密集卷积块（FRM）&lt;/span&gt;" style="rounded=0;whiteSpace=wrap;html=1;" parent="1" vertex="1">
          <mxGeometry x="720" y="320" width="60" height="130" as="geometry" />
        </mxCell>
        <mxCell id="7q9iWNbSioXYZYg2fKxY-54" value="&lt;span style=&quot;color: rgb(51, 51, 51); font-family: 宋体; font-size: 14px; text-align: start; white-space-collapse: preserve; background-color: rgb(255, 255, 255);&quot;&gt;LMSAF多尺度注意力融合模块（LMSAF）&lt;/span&gt;" style="rounded=0;whiteSpace=wrap;html=1;" parent="1" vertex="1">
          <mxGeometry x="800" y="320" width="80" height="130" as="geometry" />
        </mxCell>
        <mxCell id="7q9iWNbSioXYZYg2fKxY-55" value="&lt;span style=&quot;color: rgb(51, 51, 51); font-family: 宋体; font-size: 14px; text-align: start; white-space-collapse: preserve; background-color: rgb(255, 255, 255);&quot;&gt;&lt;span style=&quot;font-size: 10.5pt; background-color: light-dark(rgb(255, 255, 255), rgb(18, 18, 18)); color: light-dark(rgb(51, 51, 51), rgb(193, 193, 193));&quot;&gt;双解码网络结构&lt;/span&gt;&lt;/span&gt;" style="rounded=0;whiteSpace=wrap;html=1;" parent="1" vertex="1">
          <mxGeometry x="560" y="320" width="60" height="130" as="geometry" />
        </mxCell>
        <mxCell id="7q9iWNbSioXYZYg2fKxY-56" value="&lt;span style=&quot;color: rgb(6, 6, 7); font-family: -apple-system, BlinkMacSystemFont, &amp;quot;Helvetica Neue&amp;quot;, Helvetica, &amp;quot;Segoe UI&amp;quot;, Arial, Roboto, &amp;quot;PingFang SC&amp;quot;, MIUI, &amp;quot;Hiragino Sans GB&amp;quot;, &amp;quot;Microsoft YaHei&amp;quot;, sans-serif; font-size: 14px; letter-spacing: 0.25px; text-align: start; white-space-collapse: preserve; background-color: rgb(255, 255, 255);&quot;&gt;改进卷积块（ICB）&lt;/span&gt;" style="rounded=0;whiteSpace=wrap;html=1;" parent="1" vertex="1">
          <mxGeometry x="640" y="320" width="60" height="130" as="geometry" />
        </mxCell>
      </root>
    </mxGraphModel>
  </diagram>
</mxfile>
